Coordinates
version=1
nRows=15
nColumns=19
inDegrees=yes

Units are S.I. units (second, meters, Newtons, ...)
If the header above contains a line with 'inDegrees', this indicates whether rotational values are in degrees (yes) or radians (no).

endheader
time	pelvis_tilt	pelvis_list	pelvis_rotation	pelvis_tx	pelvis_ty	pelvis_tz	hip_flexion_r	hip_adduction_r	hip_rotation_r	knee_angle_r	knee_angle_r_beta	ankle_angle_r	hip_flexion_l	hip_adduction_l	hip_rotation_l	knee_angle_l	knee_angle_l_beta	ankle_angle_l
     11.70666667	     -5.60710331	     -5.00699184	      0.53884792	      2.38787213	      1.02456103	      1.03330597	     34.04324639	      6.90270549	     -5.09293102	     22.34580706	      0.39000791	     -3.93183887	    -12.10257537	     -6.60601616	     -1.08658822	     73.01158285	      1.27429251	    -26.04531661
     11.71333333	     -5.09486843	     -5.62447407	     -0.16457597	      2.38611553	      1.02098597	      1.03367998	     33.64638470	      7.86519482	     -5.57082600	     24.60920572	      0.42951167	     -2.75858240	    -10.86428962	     -7.13062749	     -1.09073188	     77.68530250	      1.35586431	    -27.66331302
     11.72000000	     -5.67230340	     -5.97632296	     -0.71208336	      2.38406814	      1.01585640	      1.03378043	     34.52330943	      8.37792617	     -6.19111371	     27.45496999	      0.47917962	     -1.30774245	     -8.18717421	     -7.32671370	     -0.58737957	     82.47219623	      1.43941137	    -29.08051269
     11.72666667	     -5.78890397	     -6.31796132	     -1.38005302	      2.38190856	      1.01106761	      1.03386138	     34.80983543	      8.97658438	     -6.51058262	     30.47887265	      0.53195668	      0.54705526	     -6.01935096	     -7.53206903	     -0.28804930	     86.93522501	      1.51730591	    -30.27542511
     11.73333333	     -5.93800737	     -6.51979074	     -2.02854283	      2.37962332	      1.00620634	      1.03382510	     35.01179550	      9.46354007	     -6.54613561	     33.56583927	      0.58583441	      2.70377242	     -3.72148055	     -7.62411508	      0.04956874	     91.17670841	      1.59133376	    -31.13686570
     11.74000000	     -6.09958199	     -6.67258095	     -2.62438078	      2.37720784	      1.00140606	      1.03367539	     35.05926027	      9.92102403	     -6.36866996	     36.54406933	      0.63781433	      5.07017131	     -1.30990210	     -7.75434390	      0.40055381	     95.19350655	      1.66144012	    -31.52781530
     11.74666667	     -6.22879638	     -6.78040984	     -3.14434235	      2.37464755	      0.99691731	      1.03344050	     34.85593638	     10.35652464	     -5.97890045	     39.26294102	      0.68526759	      7.56940434	      1.18691503	     -7.93933321	      0.78777501	     98.96186005	      1.72721029	    -31.47724291
     11.75333333	     -6.32704661	     -6.86925385	     -3.58193813	      2.37213389	      0.99287205	      1.03316653	     34.37659939	     10.77928647	     -5.44672619	     41.64455265	      0.72683456	     10.14939263	      3.75288984	     -8.22024552	      1.20061098	    102.42993915	      1.78773969	    -31.03559869
     11.76000000	     -6.39053707	     -6.89948022	     -3.91638095	      2.36953606	      0.98943910	      1.03281409	     33.62028120	     11.12187608	     -4.81286915	     43.63973111	      0.76165699	     12.71042663	      6.42189494	     -8.50978452	      1.69261316	    105.59374713	      1.84295856	    -30.23952496
     11.76666667	     -5.81635895	     -7.03591651	     -4.19922510	      2.36714539	      0.98742381	      1.03245203	     31.86243213	     11.54602617	     -4.08885509	     45.12970678	      0.78766197	     15.28393616	      8.41686543	     -8.99964467	      2.07714995	    108.28761831	      1.88997548	    -29.28086942
     11.77333333	     -6.35534713	     -6.96820727	     -4.32724819	      2.36454309	      0.98471656	      1.03200608	     31.16673139	     11.69629795	     -3.45964830	     46.29427962	      0.80798760	     17.47628124	     11.90909355	     -9.28457737	      2.81756134	    110.87302305	      1.93509930	    -27.85403303
     11.78000000	     -6.25402057	     -6.90407636	     -4.41042003	      2.36224487	      0.98344684	      1.03158227	     29.49988384	     11.79712692	     -2.77012857	     46.99048841	      0.82013874	     19.61362045	     14.70607800	     -9.59394129	      3.40727347	    112.94765613	      1.97130848	    -26.43636974
     11.78666667	     -6.10004985	     -6.79033251	     -4.44635327	      2.36023492	      0.98292895	      1.03120086	     27.53569538	     11.79560707	     -2.09103782	     47.25068145	      0.82467997	     21.49451148	     17.48442801	     -9.82678896	      3.97617640	    114.60252663	      2.00019142	    -24.95056380
     11.79333333	     -5.81107268	     -6.51107248	     -4.53054824	      2.35859130	      0.98329641	      1.03108692	     25.19574088	     11.64307400	     -1.22865871	     47.11180250	      0.82225607	     23.09887503	     20.07900032	     -9.89550547	      4.32981240	    115.78323060	      2.02079859	    -23.52347557
     11.80000000	     -5.66431183	     -6.17603935	     -4.59768909	      2.35727551	      0.98402221	      1.03101712	     22.82570020	     11.36089842	     -0.47010768	     46.61178663	      0.81352915	     24.34720520	     22.80232788	     -9.86195833	      4.61870602	    116.59377636	      2.03494528	    -22.00057573
